# xmcd
#
# Track frame offsets:
#	151
#	9123
#	21212
#	31428
#	50516
#	62589
#	76131
#	93146
#	109130
#	120560
#	132667
#	150522
#	163130
#	174157
#	189009
#	201876
#
# Disc length: 2869 seconds
#
# Revision: 1
# Processed by: cddbd v1.5.2PL0 Copyright (c) Steve Scherf et al.
# Submitted via: audiograbber 1.83.01
#
DISCID=bc0b3310
DTITLE=Diverse kunstnere Country - Bullenscluck Country Music Round Up
DYEAR=2003
DGENRE=Country
TTITLE0=Nr 1 Attracion  - Hermann Lammers Meyer
TTITLE1=California  - Michael Thomason
TTITLE2=Company´s Comin´  - Norma Jean
TTITLE3=Tiny Fingers, Tiny Toes  - Michael Ballew
TTITLE4=I´d Go Crazy  - Emsland Hillbillies
TTITLE5=Texas Dance Hall Girls  - Johnny Bush
TTITLE6=She Lays It All On The Line  - Clay Blaker
TTITLE7=Tears On The Snare  - Rodeo Wind
TTITLE8=Ouwhee Baby  - Michael Thomason
TTITLE9=Good Songs, Baf Songs  - Hermann Lammers Meyer
TTITLE10=Dark Side Of Town  - Clay Blaker
TTITLE11=Let´s Go All The Way  - Norm Jean
TTITLE12=He´s Right  - Rodeo Wind
TTITLE13=Time Changes Everything - Johnny Bush and Friend
TTITLE14=Stand By Your Man  - Johnny Bush and Friend
TTITLE15=Boot Scootin´ Boogie - Michael Ballew
EXTD=
EXTT0=
EXTT1=
EXTT2=
EXTT3=
EXTT4=
EXTT5=
EXTT6=
EXTT7=
EXTT8=
EXTT9=
EXTT10=
EXTT11=
EXTT12=
EXTT13=
EXTT14=
EXTT15=
PLAYORDER=
